<svg width="14" height="21" viewBox="0 0 14 21" fill="none" xmlns="http://www.w3.org/2000/svg">
<path fill-rule="evenodd" clip-rule="evenodd" d="M6.75046 21C6.55156 21 6.36081 20.921 6.22016 20.7803C6.07952 20.6397 6.00051 20.4489 6.00051 20.25L6.00051 2.56168L1.28181 7.28188C1.14099 7.4227 0.949994 7.50181 0.750843 7.50181C0.551692 7.50181 0.360698 7.4227 0.219877 7.28188C0.0790558 7.14106 -5.53131e-05 6.95006 -5.53131e-05 6.75091C-5.62668e-05 6.55176 0.0790558 6.36076 0.219877 6.21994L6.21949 0.220325C6.28916 0.150486 6.37192 0.0950756 6.46303 0.0572681C6.55414 0.0194607 6.65182 0 6.75046 0C6.8491 0 6.94678 0.0194607 7.03789 0.0572681C7.129 0.0950756 7.21176 0.150486 7.28143 0.220325L13.281 6.21994C13.4219 6.36076 13.501 6.55176 13.501 6.75091C13.501 6.95006 13.4219 7.14106 13.281 7.28188C13.1402 7.4227 12.9492 7.50181 12.7501 7.50181C12.5509 7.50181 12.3599 7.4227 12.2191 7.28188L7.50041 2.56168L7.50041 20.25C7.50041 20.4489 7.4214 20.6397 7.28076 20.7803C7.14011 20.921 6.94936 21 6.75046 21Z" fill="white"/>
</svg>
