<svg width="47" height="75" viewBox="0 0 47 75" fill="none" xmlns="http://www.w3.org/2000/svg">
<path d="M23.5 75C17.2674 75 11.2901 72.5307 6.88299 68.1353C2.47589 63.7399 0 57.7785 0 51.5625V23.4375C0 17.2215 2.47589 11.2601 6.88299 6.86468C11.2901 2.4693 17.2674 0 23.5 0C29.7326 0 35.7099 2.4693 40.117 6.86468C44.5241 11.2601 47 17.2215 47 23.4375V51.5625C47 54.6404 46.3922 57.6881 45.2112 60.5316C44.0302 63.3752 42.2992 65.9589 40.117 68.1353C37.9348 70.3117 35.3442 72.0381 32.4931 73.2159C29.6419 74.3938 26.5861 75 23.5 75ZM23.5 4.6875C18.5139 4.6875 13.7321 6.66294 10.2064 10.1792C6.68071 13.6956 4.7 18.4647 4.7 23.4375V51.5625C4.7 56.5353 6.68071 61.3044 10.2064 64.8208C13.7321 68.3371 18.5139 70.3125 23.5 70.3125C28.4861 70.3125 33.2679 68.3371 36.7936 64.8208C40.3193 61.3044 42.3 56.5353 42.3 51.5625V23.4375C42.3 18.4647 40.3193 13.6956 36.7936 10.1792C33.2679 6.66294 28.4861 4.6875 23.5 4.6875Z" fill="white"/>
<path d="M23.5 31C22.837 31 22.2011 30.7366 21.7322 30.2678C21.2634 29.7989 21 29.163 21 28.5V18.5C21 17.837 21.2634 17.2011 21.7322 16.7322C22.2011 16.2634 22.837 16 23.5 16C24.163 16 24.7989 16.2634 25.2678 16.7322C25.7366 17.2011 26 17.837 26 18.5V28.5C26 29.163 25.7366 29.7989 25.2678 30.2678C24.7989 30.7366 24.163 31 23.5 31Z" fill="white"/>
</svg>
