<svg width="1920" height="1080" viewBox="0 0 1920 1080" fill="none" xmlns="http://www.w3.org/2000/svg">
<rect opacity="0.3" x="808.34" y="-2.23633" width="211.222" height="19.2748" rx="9.63742" transform="rotate(36.0366 808.34 -2.23633)" fill="url(#paint0_linear_525_8)"/>
<rect opacity="0.3" x="978.34" y="616" width="211.222" height="19.2748" rx="9.63742" transform="rotate(36.0366 978.34 616)" fill="url(#paint1_linear_525_8)"/>
<rect opacity="0.3" x="932.339" y="840" width="211.222" height="19.2748" rx="9.63742" transform="rotate(36.0366 932.339 840)" fill="url(#paint2_linear_525_8)"/>
<rect opacity="0.3" x="766.34" y="333" width="211.222" height="19.2748" rx="9.63742" transform="rotate(36.0366 766.34 333)" fill="url(#paint3_linear_525_8)"/>
<rect opacity="0.3" x="1400.34" y="676" width="211.222" height="19.2748" rx="9.63742" transform="rotate(36.0366 1400.34 676)" fill="url(#paint4_linear_525_8)"/>
<rect opacity="0.3" x="37.3398" y="103" width="211.222" height="19.2748" rx="9.63742" transform="rotate(36.0366 37.3398 103)" fill="url(#paint5_linear_525_8)"/>
<rect opacity="0.3" x="403.34" y="800" width="211.222" height="19.2748" rx="9.63742" transform="rotate(36.0366 403.34 800)" fill="url(#paint6_linear_525_8)"/>
<rect opacity="0.3" x="277.34" y="940" width="211.222" height="19.2748" rx="9.63742" transform="rotate(36.0366 277.34 940)" fill="url(#paint7_linear_525_8)"/>
<rect opacity="0.3" x="-53.6602" y="730" width="211.222" height="19.2748" rx="9.63742" transform="rotate(36.0366 -53.6602 730)" fill="url(#paint8_linear_525_8)"/>
<rect opacity="0.3" x="1813.34" y="824" width="211.222" height="19.2748" rx="9.63742" transform="rotate(36.0366 1813.34 824)" fill="url(#paint9_linear_525_8)"/>
<rect opacity="0.3" x="1389.34" y="894" width="211.222" height="19.2748" rx="9.63742" transform="rotate(36.0366 1389.34 894)" fill="url(#paint10_linear_525_8)"/>
<rect opacity="0.3" x="1582.34" y="-37" width="211.222" height="19.2748" rx="9.63742" transform="rotate(36.0366 1582.34 -37)" fill="url(#paint11_linear_525_8)"/>
<rect opacity="0.3" x="1502.34" y="173" width="211.222" height="19.2748" rx="9.63742" transform="rotate(36.0366 1502.34 173)" fill="url(#paint12_linear_525_8)"/>
<defs>
<linearGradient id="paint0_linear_525_8" x1="1115.35" y1="2.1977" x2="854.675" y2="-59.409" gradientUnits="userSpaceOnUse">
<stop stop-color="white" stop-opacity="0.59"/>
<stop offset="1" stop-color="white" stop-opacity="0"/>
</linearGradient>
<linearGradient id="paint1_linear_525_8" x1="1285.35" y1="620.434" x2="1024.68" y2="558.827" gradientUnits="userSpaceOnUse">
<stop stop-color="white" stop-opacity="0.59"/>
<stop offset="1" stop-color="white" stop-opacity="0"/>
</linearGradient>
<linearGradient id="paint2_linear_525_8" x1="1239.35" y1="844.434" x2="978.675" y2="782.827" gradientUnits="userSpaceOnUse">
<stop stop-color="white" stop-opacity="0.59"/>
<stop offset="1" stop-color="white" stop-opacity="0"/>
</linearGradient>
<linearGradient id="paint3_linear_525_8" x1="1073.35" y1="337.434" x2="812.675" y2="275.827" gradientUnits="userSpaceOnUse">
<stop stop-color="white" stop-opacity="0.59"/>
<stop offset="1" stop-color="white" stop-opacity="0"/>
</linearGradient>
<linearGradient id="paint4_linear_525_8" x1="1707.35" y1="680.434" x2="1446.68" y2="618.827" gradientUnits="userSpaceOnUse">
<stop stop-color="white" stop-opacity="0.59"/>
<stop offset="1" stop-color="white" stop-opacity="0"/>
</linearGradient>
<linearGradient id="paint5_linear_525_8" x1="344.355" y1="107.434" x2="83.6754" y2="45.8274" gradientUnits="userSpaceOnUse">
<stop stop-color="white" stop-opacity="0.59"/>
<stop offset="1" stop-color="white" stop-opacity="0"/>
</linearGradient>
<linearGradient id="paint6_linear_525_8" x1="710.355" y1="804.434" x2="449.675" y2="742.827" gradientUnits="userSpaceOnUse">
<stop stop-color="white" stop-opacity="0.59"/>
<stop offset="1" stop-color="white" stop-opacity="0"/>
</linearGradient>
<linearGradient id="paint7_linear_525_8" x1="584.355" y1="944.434" x2="323.675" y2="882.827" gradientUnits="userSpaceOnUse">
<stop stop-color="white" stop-opacity="0.59"/>
<stop offset="1" stop-color="white" stop-opacity="0"/>
</linearGradient>
<linearGradient id="paint8_linear_525_8" x1="253.355" y1="734.434" x2="-7.32464" y2="672.827" gradientUnits="userSpaceOnUse">
<stop stop-color="white" stop-opacity="0.59"/>
<stop offset="1" stop-color="white" stop-opacity="0"/>
</linearGradient>
<linearGradient id="paint9_linear_525_8" x1="2120.35" y1="828.434" x2="1859.68" y2="766.827" gradientUnits="userSpaceOnUse">
<stop stop-color="white" stop-opacity="0.59"/>
<stop offset="1" stop-color="white" stop-opacity="0"/>
</linearGradient>
<linearGradient id="paint10_linear_525_8" x1="1696.35" y1="898.434" x2="1435.68" y2="836.827" gradientUnits="userSpaceOnUse">
<stop stop-color="white" stop-opacity="0.59"/>
<stop offset="1" stop-color="white" stop-opacity="0"/>
</linearGradient>
<linearGradient id="paint11_linear_525_8" x1="1889.35" y1="-32.566" x2="1628.68" y2="-94.1726" gradientUnits="userSpaceOnUse">
<stop stop-color="white" stop-opacity="0.59"/>
<stop offset="1" stop-color="white" stop-opacity="0"/>
</linearGradient>
<linearGradient id="paint12_linear_525_8" x1="1809.35" y1="177.434" x2="1548.68" y2="115.827" gradientUnits="userSpaceOnUse">
<stop stop-color="white" stop-opacity="0.59"/>
<stop offset="1" stop-color="white" stop-opacity="0"/>
</linearGradient>
</defs>
</svg>
