<svg width="22" height="22" viewBox="0 0 22 22" fill="none" xmlns="http://www.w3.org/2000/svg">
<path d="M13.7976 1.68051C13.6039 1.48698 13.3412 1.37828 13.0674 1.37828C12.7935 1.37828 12.5308 1.48698 12.3371 1.68051L1.68188 12.3357C1.58585 12.4317 1.50967 12.5456 1.4577 12.671C1.40572 12.7965 1.37897 12.9309 1.37897 13.0667C1.37897 13.2024 1.40572 13.3369 1.4577 13.4623C1.50967 13.5877 1.58585 13.7017 1.68188 13.7976L2.74975 14.8655C2.76168 14.8698 2.77425 14.8722 2.78695 14.8724C2.85074 14.8724 2.91343 14.8558 2.96883 14.8242C3.55689 14.5023 4.23343 14.3797 4.89704 14.4748C5.56065 14.5698 6.17556 14.8774 6.6496 15.3515C7.12363 15.8255 7.43124 16.4404 7.52631 17.104C7.62137 17.7676 7.49878 18.4442 7.1769 19.0322C7.1455 19.0872 7.12888 19.1494 7.12867 19.2127C7.12867 19.2348 7.13418 19.2458 7.13556 19.2499L8.20204 20.3178C8.29801 20.4138 8.41197 20.49 8.53739 20.542C8.66281 20.594 8.79725 20.6207 8.93301 20.6207C9.06878 20.6207 9.20322 20.594 9.32864 20.542C9.45406 20.49 9.56801 20.4138 9.66398 20.3178L20.3178 9.66398C20.5113 9.47022 20.62 9.20756 20.62 8.9337C20.62 8.65985 20.5113 8.39719 20.3178 8.20342L19.2513 7.13556C19.2394 7.13121 19.2268 7.12889 19.2141 7.12867C19.1499 7.1284 19.0867 7.14503 19.0309 7.1769C18.4428 7.49821 17.7665 7.62035 17.1033 7.52504C16.44 7.42972 15.8254 7.12206 15.3517 6.64816C14.878 6.17426 14.5705 5.55962 14.4754 4.89632C14.3803 4.23302 14.5027 3.55675 14.8242 2.96883C14.8558 2.91343 14.8724 2.85074 14.8724 2.78695C14.8722 2.77425 14.8699 2.76168 14.8655 2.74975L13.7976 1.68188V1.68051ZM11.3615 0.706341C11.5855 0.482405 11.8513 0.304767 12.1439 0.183573C12.4364 0.0623782 12.75 0 13.0667 0C13.3834 0 13.6969 0.0623782 13.9895 0.183573C14.2821 0.304767 14.5479 0.482405 14.7718 0.706341L15.8397 1.7742C16.4005 2.335 16.304 3.1328 16.0326 3.62884C15.8544 3.95543 15.7867 4.33094 15.8397 4.69918C15.8927 5.06743 16.0636 5.40861 16.3266 5.67168C16.5897 5.93475 16.9309 6.10557 17.2991 6.15858C17.6674 6.21159 18.0429 6.14393 18.3695 5.96573C18.8655 5.69429 19.6647 5.59922 20.2241 6.15864L21.2933 7.2265C21.5173 7.45041 21.6949 7.71625 21.8161 8.00881C21.9373 8.30138 21.9997 8.61496 21.9997 8.93163C21.9997 9.24831 21.9373 9.56189 21.8161 9.85446C21.6949 10.147 21.5173 10.4129 21.2933 10.6368L10.6368 21.292C10.4129 21.5159 10.147 21.6935 9.85446 21.8147C9.56189 21.9359 9.24831 21.9983 8.93164 21.9983C8.61496 21.9983 8.30138 21.9359 8.00881 21.8147C7.71625 21.6935 7.45041 21.5159 7.2265 21.292L6.15864 20.2255C5.59922 19.6647 5.69429 18.8669 5.96573 18.3708C6.14393 18.0443 6.21159 17.6687 6.15858 17.3005C6.10557 16.9323 5.93476 16.5911 5.67168 16.328C5.40861 16.0649 5.06743 15.8941 4.69918 15.8411C4.33094 15.7881 3.95543 15.8558 3.62884 16.034C3.1328 16.304 2.33363 16.4005 1.7742 15.841L0.706341 14.7718C0.482405 14.5479 0.304768 14.2821 0.183573 13.9895C0.0623785 13.6969 0 13.3833 0 13.0667C0 12.75 0.0623785 12.4364 0.183573 12.1439C0.304768 11.8513 0.482405 11.5855 0.706341 11.3615L11.3602 0.707719L11.3615 0.706341Z" fill="black"/>
</svg>
